<?xml version="1.0" encoding="UTF-8"?>
<svg version="1.1" xmlns="http://www.w3.org/2000/svg" width="512" height="512">
<path d="M0 0 C7.71884727 -0.07669341 15.43759459 -0.12886742 23.15673828 -0.16479492 C25.77721834 -0.17978844 28.39767371 -0.20019002 31.01806641 -0.22631836 C34.80637748 -0.2631191 38.59435393 -0.27982142 42.3828125 -0.29296875 C43.53548615 -0.30845261 44.68815979 -0.32393646 45.87576294 -0.33988953 C67.01031746 -0.34416497 88.43358382 7.87776244 103.76953125 22.61328125 C117.12450814 36.90380819 124.28514079 55.47797706 131.51367188 73.33886719 C134.14834461 79.82860968 136.8255266 86.30087974 139.49551392 92.77615356 C140.42053953 95.0213343 141.3437761 97.26724162 142.26635742 99.51342773 C142.55778625 100.22256317 142.84921509 100.93169861 143.1494751 101.662323 C143.69369035 102.9867266 144.23754387 104.31127893 144.78094482 105.63601685 C146.4824446 109.77445484 148.22925531 113.890884 150 118 C150.4125 116.93265625 150.825 115.8653125 151.25 114.765625 C154.43070235 106.5529339 157.64844191 98.35743596 160.9375 90.1875 C163.70944884 83.30119093 166.38239759 76.38381986 169 69.4375 C179.24795434 42.42312992 190.22304746 18.30875412 217.625 5.0625 C228.97831094 0.40218896 238.87795334 -0.31350121 251 0 C251 9.24 251 18.48 251 28 C248.23625 28.53625 245.4725 29.0725 242.625 29.625 C235.17571161 31.21913305 229.03597768 33.16466887 223 38 C222.23558594 38.60199219 221.47117188 39.20398438 220.68359375 39.82421875 C207.45870056 51.57222031 202.69124989 71.13180157 196.6000824 87.18418884 C194.10362661 93.75338076 191.55608238 100.30210199 188.99075317 106.84468079 C187.25687706 111.26698999 185.53443643 115.69289931 183.84033203 120.13061523 C180.92996271 127.72592074 177.99203799 135.20677873 174.40625 142.51171875 C168.54769586 154.5279014 168.54769586 154.5279014 169.37890625 167.5 C171.33284132 172.93250703 173.82545137 178.01702822 176.52587891 183.11279297 C178.74833759 187.46569069 180.4320147 191.98392249 182.125 196.5625 C182.68781812 198.02301841 183.25265951 199.48276018 183.8203125 200.94140625 C184.20960938 201.95074219 184.59890625 202.96007812 185 204 C188.33277659 197.66621643 190.91221407 191.21475256 193.375 184.5 C193.77146729 183.43120605 194.16793457 182.36241211 194.57641602 181.26123047 C195.36634812 179.13151312 196.15456441 177.00115843 196.94091797 174.87011719 C202.02574926 161.09020094 207.29338751 147.38145048 212.58203125 133.67871094 C213.81105109 130.4902001 215.03656878 127.30038419 216.26051331 124.10992432 C231.01864291 85.65364709 231.01864291 85.65364709 237 74 C237.66 74 238.32 74 239 74 C239.22042969 73.4328125 239.44085938 72.865625 239.66796875 72.28125 C244.33021145 64.29664666 254.4816805 59.83858136 262.99609375 57.57421875 C266.80526061 56.84606852 270.13963376 56.69722618 274 57 C277.98911332 64.28780318 281.01783142 71.90513671 284.05664062 79.62011719 C285.77288508 83.96567401 287.51491053 88.26827211 289.5 92.5 C292.28034594 98.4364143 294.63088965 104.53869382 297.04101562 110.63183594 C299.5105437 116.84815278 302.11910048 122.96119138 305 129 C307.5173396 125.95081536 308.88773593 123.06553652 310.23828125 119.359375 C312.2221961 114.04423218 314.27871919 108.77018921 316.41796875 103.515625 C316.87055809 102.40139915 316.87055809 102.40139915 317.33229065 101.2646637 C318.61469104 98.1095909 319.89995589 94.95568773 321.18508911 91.80172729 C326.12045845 79.68736307 326.12045845 79.68736307 330.921875 67.51953125 C340.95726378 41.69285649 353.40216364 21.01476505 378.625 7.8125 C379.50949829 7.33115601 379.50949829 7.33115601 380.41186523 6.84008789 C396.96829518 -1.49949505 414.45624795 -0.48703529 432.5 -0.25 C435.17316359 -0.2275917 437.84631803 -0.21165443 440.51953125 -0.1953125 C447.01334481 -0.15162015 453.50660251 -0.08499817 460 0 C459.25776228 3.98099076 458.12417668 7.42055967 456.55859375 11.1640625 C455.81270996 12.95674561 455.81270996 12.95674561 455.05175781 14.78564453 C454.51379308 16.06548064 453.97570455 17.34526472 453.4375 18.625 C452.88731893 19.94238845 452.33751682 21.25993522 451.78808594 22.57763672 C450.19787875 26.38754845 448.59950307 30.19398168 447 34 C446.23566222 35.82291043 445.47133726 37.64582624 444.70703125 39.46875 C443.11764325 43.25379937 441.52133884 47.03588689 439.92236328 50.81689453 C438.98648429 53.0319898 438.05332285 55.24821011 437.12109375 57.46484375 C436.64591309 58.59466675 436.64591309 58.59466675 436.16113281 59.74731445 C435.51068537 61.2940028 434.86029498 62.84071514 434.20996094 64.38745117 C432.26021531 69.02021633 430.30025728 73.64849115 428.33203125 78.2734375 C423.32701482 90.04447857 418.4135265 101.83997781 413.69921875 113.73046875 C411.94338102 118.15734921 410.12402057 122.55556896 408.27734375 126.9453125 C407.27938764 129.33186197 406.2937065 131.72217506 405.31640625 134.1171875 C400.13803267 146.79696961 400.13803267 146.79696961 397.5 152.4375 C394.95550501 157.9198823 392.80359194 163.53954892 390.67382812 169.19311523 C389.17004689 173.14584843 387.56100247 177.01287964 385.78515625 180.8515625 C381.92004744 189.25245159 378.46392773 197.82814147 374.9375 206.375 C374.18004713 208.20638026 373.42239536 210.03767828 372.66455078 211.86889648 C369.53509409 219.4329606 366.4118351 226.99957684 363.29206848 234.56764221 C358.43140656 246.35801766 353.57115807 258.13932912 348.3984375 269.796875 C346.74344994 273.58762863 345.20910691 277.41628243 343.7265625 281.27734375 C343 283 343 283 342 284 C315.33284819 286.16273288 291.2854227 279.86748456 270.7265625 262.46484375 C255.66705144 248.85087315 248.03994632 232.64654095 240.35742188 214.24707031 C238.89135693 210.74011641 237.40853031 207.24044342 235.921875 203.7421875 C233.27095319 197.4991111 230.63155427 191.25126246 228 185 C225.77304465 187.22695535 225.2347761 188.71194278 224.1953125 191.65625 C223.85886719 192.59726562 223.52242187 193.53828125 223.17578125 194.5078125 C222.82902344 195.49523437 222.48226562 196.48265625 222.125 197.5 C210.69065569 229.75963299 210.69065569 229.75963299 202.45703125 242.69140625 C201.29006573 244.54040523 200.21636544 246.44812982 199.17578125 248.37109375 C190.07629689 264.36653254 172.6956403 275.48648774 155.55078125 281.13671875 C152.70260445 281.86931128 149.89763893 282.50125987 147 283 C145.96875 283.185625 144.9375 283.37125 143.875 283.5625 C138.75650244 284.14039489 133.70825531 284.10602298 128.5625 284.0625 C127.54478516 284.05798828 126.52707031 284.05347656 125.47851562 284.04882812 C122.98561491 284.03712437 120.49283926 284.02072848 118 284 C114.08749589 275.61155513 110.49546947 267.10522717 106.9548645 258.55563354 C105.64234382 255.38639675 104.32572844 252.21886636 103.0092926 249.05125427 C102.33303023 247.42402245 101.65695441 245.79671308 100.98106384 244.16932678 C97.6918582 236.25158363 94.38035918 228.34327078 91.0625 220.4375 C90.65662659 219.46993271 90.65662659 219.46993271 90.24255371 218.4828186 C87.74450328 212.52768852 85.24425882 206.57350731 82.73046875 200.625 C78.83662468 191.41031713 75.00454437 182.17284292 71.23144531 172.90795898 C68.52232323 166.25732742 65.76776872 159.62641698 63 153 C62.16647058 151.00008172 61.33313648 149.00008201 60.5 147 C60.0875 146.01 59.675 145.02 59.25 144 C55.5 135 55.5 135 54.25585938 132.01367188 C53.40336291 129.96794552 52.55048535 127.92237793 51.69726562 125.87695312 C49.28405694 120.09036347 46.88202181 114.29949103 44.5 108.5 C43.60446245 106.3242596 42.7085176 104.14868727 41.8125 101.97314453 C41.10369498 100.25182176 40.39554162 98.53023067 39.6875 96.80859375 C37.72701251 92.06859932 35.72349969 87.35139349 33.65402222 82.65782166 C29.60380101 73.46826513 25.71949095 64.2146219 21.875 54.9375 C20.56848433 51.78873995 19.26104998 48.6403624 17.953125 45.4921875 C17.62579376 44.70403152 17.29846252 43.91587555 16.96121216 43.10383606 C14.71806981 37.70911915 12.45158863 32.32466545 10.171875 26.9453125 C9.56781773 25.51703103 8.96381269 24.08872747 8.35986328 22.66040039 C7.50074271 20.62885652 6.64015537 18.59801132 5.77435303 16.56930542 C4.9834678 14.71592579 4.19862474 12.85997133 3.4140625 11.00390625 C2.74818115 9.43878296 2.74818115 9.43878296 2.06884766 7.84204102 C1.07921754 5.21063759 0.5137627 2.75428563 0 0 Z M44 29 C46.89066803 37.51221843 50.09928435 45.86646453 53.5 54.1875 C54.05095337 55.53932373 54.05095337 55.53932373 54.61303711 56.91845703 C56.44696113 61.375107 58.34450239 65.78792638 60.36328125 70.1640625 C63.35767808 76.69503485 66.07068379 83.33802366 68.78817749 89.98730469 C70.33355629 93.76807871 71.8862174 97.54586427 73.4375 101.32421875 C73.74503708 102.07383881 74.05257416 102.82345886 74.36943054 103.59579468 C80.77529905 119.20670231 87.31341737 134.76115101 93.89746094 150.29760742 C101.13479209 167.38631631 108.22432279 184.53610528 115.31030273 201.68798828 C119.71297364 212.33266187 124.16502063 222.95635376 128.63598633 233.57250977 C131.49020661 240.35599405 134.30059118 247.15322742 137 254 C148.83916595 253.4080417 158.15455604 248.75093195 167 241 C162.48693513 229.60388089 157.88169038 218.2515508 153.1484375 206.94506836 C150.54249374 200.71498728 147.95696077 194.47694485 145.390625 188.23046875 C145.07940704 187.47316467 144.76818909 186.7158606 144.44754028 185.93560791 C143.20181431 182.90353286 141.95641042 179.87132961 140.71356201 176.83807373 C137.91134644 169.99910276 135.10766494 163.16953957 132.06884766 156.43139648 C129.38984267 150.33724146 126.90445421 144.15740554 124.375 138 C124.06597748 137.24912109 123.75695496 136.49824219 123.43856812 135.72460938 C119.50737458 126.171547 115.62437011 116.60142078 111.8125 107 C106.74015846 94.24834993 101.46069655 81.59023265 96 69 C95.62601074 68.13246094 95.25202148 67.26492187 94.86669922 66.37109375 C88.31406648 51.30034084 80.79645114 39.75135262 65.375 32.6875 C58.55189073 30.13976849 51.20169466 29.67906798 44 29 Z M378.375 43.875 C370.55665592 51.97559477 366.48218315 62.15537579 362.5 72.5 C361.45338347 75.17481772 360.40015872 77.84702508 359.34765625 80.51953125 C359.07683731 81.20968826 358.80601837 81.89984528 358.5269928 82.61091614 C355.42240034 90.50761373 352.18147407 98.34728502 348.9375 106.1875 C347.75600493 109.04666634 346.57516461 111.90610274 345.39453125 114.765625 C345.107453 115.46070663 344.82037476 116.15578827 344.52459717 116.87193298 C341.24239972 124.82499925 338.00844372 132.79756501 334.77246094 140.76953125 C331.81394874 148.04318484 328.77654485 155.27979588 325.70117188 162.50463867 C323.71233976 167.21068704 321.87251078 171.94968988 320.125 176.75 C317.31142428 184.47673177 313.9994603 191.96460267 310.68334961 199.48657227 C307.91546486 205.79885953 305.34208075 212.14085477 302.98535156 218.61694336 C301.18199826 223.57226158 299.18296281 228.41979542 297.078125 233.25390625 C295.81785527 236.46394111 294.9047589 239.67295477 294 243 C303.2959066 249.13413273 311.47834722 254.26524668 323 254 C325.66991291 247.66803132 328.33561296 241.33429571 331 235 C331.45568359 233.91702637 331.91136719 232.83405273 332.38085938 231.71826172 C341.02850023 211.158233 349.58214018 190.55986273 358.11811829 169.95326233 C360.77997402 163.52837613 363.44874298 157.10640216 366.125 150.6875 C366.49778076 149.79289062 366.87056152 148.89828125 367.25463867 147.9765625 C369.37725948 142.88477555 371.50404349 137.79474533 373.63363647 132.70587158 C375.2571608 128.82533368 376.87882915 124.94402161 378.5 121.0625 C378.82381653 120.28753174 379.14763306 119.51256348 379.48126221 118.71411133 C383.99961812 107.89360705 388.39997136 97.03497601 392.70825195 86.12890625 C395.34956516 79.49184613 398.25078362 73.04748956 401.34765625 66.61328125 C403.62325828 61.63708296 405.56160948 56.5508234 407.50317383 51.43701172 C409.47401268 46.26798527 411.63391589 41.23953057 414.0546875 36.26171875 C415.06101349 33.85402145 415.57263322 31.56874713 416 29 C401.73806741 29 388.71945503 34.02757584 378.375 43.875 Z M259 100 C255.49504717 108.34073361 252.09275393 116.71807395 248.75 125.125 C247.87058247 127.33625217 246.99041389 129.54720584 246.109375 131.7578125 C245.72749023 132.7183252 245.34560547 133.67883789 244.95214844 134.66845703 C244 137 244 137 243 139 C242.08607965 146.02870702 245.0323389 151.16150051 248.0625 157.375 C249.08197441 159.52744117 250.09889345 161.68109448 251.11328125 163.8359375 C251.61037598 164.88749023 252.1074707 165.93904297 252.61962891 167.02246094 C254.44932142 170.96921189 256.12721661 174.9645829 257.75 179 C261.00863775 187.07187279 264.47450061 195.04144691 268 203 C268.43828125 203.99 268.8765625 204.98 269.328125 206 C270.21613987 208.00116028 271.10751341 210.00083003 272 212 C272.66 212 273.32 212 274 212 C275.47919005 208.41283797 276.95393539 204.8238805 278.42504883 201.23339844 C279.16463233 199.43073765 279.90746017 197.62940899 280.65039062 195.828125 C281.63130648 193.43179365 282.58988606 191.02621263 283.52734375 188.61254883 C285 185 285 185 286.73828125 181.64331055 C289.74566702 175.27530081 290.517923 170.92730469 288.18981934 164.34326172 C286.49418893 160.17026178 284.57651968 156.12056595 282.625 152.0625 C281.82468204 150.31144267 281.02923591 148.55815099 280.23852539 146.80273438 C278.63313637 143.24876938 277.00696137 139.70554552 275.36474609 136.16845703 C272.15164548 129.20421569 269.20852191 122.13128587 266.28216553 115.04293823 C264.94782836 111.81566267 263.59597483 108.59580321 262.24609375 105.375 C261.49724257 103.58339739 260.74847855 101.79175832 260 100 C259.67 100 259.34 100 259 100 Z " fill="#F64A00" transform="translate(26,114)"/>
<path d="M0 0 C0.66 0.99 1.32 1.98 2 3 C-0.75 8.875 -0.75 8.875 -3 10 C-2.01 6.7 -1.02 3.4 0 0 Z " fill="#9F3100" transform="translate(398,248)"/>
<path d="M0 0 C0.66 0.99 1.32 1.98 2 3 C-0.75 8.875 -0.75 8.875 -3 10 C-2.01 6.7 -1.02 3.4 0 0 Z " fill="#962E00" transform="translate(240,244)"/>
</svg>
