<?xml version="1.0" encoding="UTF-8"?>
<svg version="1.1" xmlns="http://www.w3.org/2000/svg" width="3286" height="400">
<path d="M0 0 C9.84171074 -0.09349585 19.68331244 -0.16416249 29.52538013 -0.20724869 C34.09756694 -0.22794855 38.66944556 -0.25593555 43.24145508 -0.30175781 C47.67004523 -0.34585485 52.09834276 -0.36926861 56.52713585 -0.37950897 C58.20008629 -0.38678777 59.87302436 -0.40099319 61.54584694 -0.42292023 C94.16244473 -0.83267187 122.36593027 11.29389314 146.23828125 33.25390625 C149.06393526 36.06357353 151.57029245 38.84447818 154 42 C154 42.66 154 43.32 154 44 C154.66 44 155.32 44 156 44 C158.96765742 48.13103486 161.45893979 52.59579494 164 57 C164.34933594 57.60392578 164.69867188 58.20785156 165.05859375 58.83007812 C169.43710052 66.48833431 173.0203708 74.18474746 175.98388672 82.49560547 C177.2131884 85.94293934 178.51143988 89.21605037 180.25 92.4375 C182.27772592 96.56537062 183.20776525 100.49677091 184 105 C184.66 105 185.32 105 186 105 C186.27972656 105.74121094 186.55945313 106.48242188 186.84765625 107.24609375 C189.8915808 115.2425129 193.10040602 123.15843089 196.375 131.0625 C197.63011437 134.09426027 198.85769485 137.13532696 200.0625 140.1875 C201.65365972 144.19969155 203.35046784 148.16328561 205.0625 152.125 C207.18278878 157.04192284 209.1865019 161.96250528 211 167 C215.50980849 158.19211113 219.05969722 149.03877256 222.25 139.6875 C226.02867363 128.63754819 230.38165161 117.8391276 234.77441406 107.02148438 C236.63419748 102.43648845 238.47454603 97.84378119 240.3125 93.25 C240.63951904 92.43426514 240.96653809 91.61853027 241.3034668 90.77807617 C243.15992227 86.1376528 244.97321307 81.48399146 246.75 76.8125 C248.40368734 72.4750507 250.16913356 68.21873879 252.10546875 64 C253.03787743 61.98312157 253.03787743 61.98312157 253.80078125 59.76953125 C255.50144143 55.84194796 257.73347748 52.31069814 260 48.6875 C260.45117188 47.94693359 260.90234375 47.20636719 261.3671875 46.44335938 C261.80289062 45.74404297 262.23859375 45.04472656 262.6875 44.32421875 C263.08324219 43.68572998 263.47898437 43.04724121 263.88671875 42.3894043 C264.43779297 41.70164917 264.43779297 41.70164917 265 41 C265.66 41 266.32 41 267 41 C267.36738281 40.16082031 267.36738281 40.16082031 267.7421875 39.3046875 C271.52026698 32.3821195 277.84050598 26.68812859 284.2734375 22.25390625 C286.03157448 21.04648412 286.03157448 21.04648412 287.48046875 19.515625 C297.11134447 9.90950731 311.16599723 5.22315138 324 2 C325.23234375 1.63648437 326.4646875 1.27296875 327.734375 0.8984375 C332.79864035 -0.36336599 337.81163129 -0.21803282 343 -0.125 C343.96550781 -0.11597656 344.93101562 -0.10695312 345.92578125 -0.09765625 C348.28412099 -0.07430635 350.64192286 -0.04156047 353 0 C353.94146409 4.65977173 354.06389045 9.07751261 353.87890625 13.8046875 C353.85529526 14.5286673 353.83168427 15.25264709 353.80735779 15.99856567 C353.73132307 18.29094051 353.64704376 20.58292481 353.5625 22.875 C353.50921886 24.43748145 353.45647897 25.99998146 353.40429688 27.5625 C353.2757905 31.37524316 353.13989371 35.18765836 353 39 C351.83984375 39.15855469 350.6796875 39.31710938 349.484375 39.48046875 C336.31935779 41.395894 325.7314886 44.4707635 314.9609375 52.64453125 C313 54 313 54 311 54 C310.67 54.99 310.34 55.98 310 57 C309.34 57 308.68 57 308 57 C307.67 57.99 307.34 58.98 307 60 C306.34 60 305.68 60 305 60 C304.72542969 60.58136719 304.45085937 61.16273437 304.16796875 61.76171875 C303.02998982 63.94252786 301.74813133 65.81834909 300.3125 67.8125 C293.1138815 78.51409587 288.63396023 91.02677874 284 103 C283.36964844 104.61841797 283.36964844 104.61841797 282.7265625 106.26953125 C280.96573202 110.81740871 279.2298003 115.3738236 277.53125 119.9453125 C277.02099103 121.31776697 276.51057315 122.69016238 276 124.0625 C275.74822998 124.73925781 275.49645996 125.41601562 275.23706055 126.11328125 C273.34879412 131.15353291 271.31756585 136.11997704 269.17578125 141.05859375 C268.23018687 143.42415044 267.41176077 145.75910346 266.62890625 148.1796875 C264.89545291 153.46361392 262.77027096 158.55988883 260.625 163.6875 C257.57959543 171.03843423 254.71923341 178.39340653 252.109375 185.91015625 C250.63926067 190.00473524 248.95435086 193.99285268 247.25390625 197.99609375 C245.47470168 202.25842494 243.83608962 206.5705034 242.203125 210.890625 C240.80564187 214.50230219 239.27948088 218.05064751 237.69921875 221.5859375 C235.69151987 228.51754591 237.70942921 233.46267408 240.6875 239.625 C241.42837064 241.21885101 242.16664031 242.81391354 242.90234375 244.41015625 C243.4435083 245.57828857 243.4435083 245.57828857 243.99560547 246.77001953 C245.83088375 250.84474773 247.36028823 255.02369876 248.9296875 259.20703125 C250.11638767 262.30371236 251.44558707 265.30777575 252.8203125 268.32421875 C255.68530428 274.82262725 258.31319681 281.42638881 261 288 C263.60127748 285.39872252 264.24919681 282.55101112 265.3125 279.125 C267.17654837 273.32412571 269.29551531 267.72949531 271.6953125 262.125 C273.15262968 258.63441992 274.49514546 255.10750107 275.8125 251.5625 C276.05935547 250.89855225 276.30621094 250.23460449 276.56054688 249.55053711 C276.81642578 248.8622583 277.07230469 248.17397949 277.3359375 247.46484375 C279.17843573 242.50881314 281.05531467 237.56607436 282.9375 232.625 C283.44434326 231.2937207 283.44434326 231.2937207 283.96142578 229.93554688 C286.45942919 223.3870816 289.00381848 216.85750996 291.56176758 210.33227539 C293.34033116 205.77045172 295.01198516 201.18547087 296.625 196.5625 C298.03269373 192.55422923 299.5448631 188.70759189 301.375 184.875 C303.75232924 179.82317537 305.57121883 174.65064986 307.375 169.375 C309.83105045 162.19495173 312.49496779 155.16262254 315.43823242 148.16918945 C317.46631574 143.33870529 319.36516186 138.47418481 321.1875 133.5625 C321.56297974 132.55678955 321.56297974 132.55678955 321.94604492 131.53076172 C322.97132731 128.78181122 323.98892287 126.03084827 324.98046875 123.26953125 C329.05680298 112.35777194 334.36212937 101.86897962 344 95 C344.77214844 94.40832031 345.54429687 93.81664063 346.33984375 93.20703125 C358.71902726 84.03509275 370.7794177 80.80219435 386 80 C388.33022856 84.40154283 390.33305565 88.7667379 392.0625 93.4375 C395.03868549 101.37089445 398.51803009 109.07571365 401.99047852 116.80249023 C404.6123489 122.67830139 406.99548598 128.56860311 409.14428711 134.63330078 C410.13196213 137.36497599 411.26497178 139.99639264 412.5 142.625 C412.92410156 143.53894531 413.34820312 144.45289063 413.78515625 145.39453125 C414.18605469 146.25433594 414.58695312 147.11414063 415 148 C416.35461326 150.99077359 417.68180402 153.99301201 419 157 C419.47566406 158.08410156 419.95132812 159.16820312 420.44140625 160.28515625 C423.262591 166.78307301 425.90283312 173.26509074 428.140625 179.98828125 C428.82029713 182.17966387 428.82029713 182.17966387 431 183 C431.21092285 182.47269287 431.4218457 181.94538574 431.63916016 181.40209961 C431.93612793 180.65968018 432.2330957 179.91726074 432.5390625 179.15234375 C432.8693042 178.32669922 433.1995459 177.50105469 433.53979492 176.65039062 C434.26901233 174.82742914 434.99834351 173.00451317 435.7277832 171.18164062 C437.384913 167.04008945 439.04145365 162.8983227 440.69140625 158.75390625 C448.43437743 139.31352674 448.43437743 139.31352674 452.5 130.625 C454.92822269 125.35120385 456.84050743 119.95057996 458.75390625 114.47265625 C460.63594511 109.22772665 462.79996777 104.11803905 465 99 C465.45117188 97.94683594 465.90234375 96.89367187 466.3671875 95.80859375 C467.35363645 93.50776823 468.34336377 91.20834619 469.3359375 88.91015625 C470.56072926 86.05551765 471.74435069 83.18622475 472.9140625 80.30859375 C476.32375333 71.96716192 479.80351349 64.02687936 484.5546875 56.34765625 C485.83164598 54.27346153 486.95044602 52.19591148 488 50 C488.66 50 489.32 50 490 50 C490.268125 49.2575 490.53625 48.515 490.8125 47.75 C491.95276751 45.10938051 493.09380306 43.14447156 495 41 C495.66 41 496.32 41 497 41 C497.23460937 40.44441406 497.46921875 39.88882813 497.7109375 39.31640625 C502.26704652 31.12921641 510.93658645 25.03730539 518.5 19.8125 C519.19432129 19.33095459 519.88864258 18.84940918 520.60400391 18.35327148 C525.60659636 15 525.60659636 15 529 15 C529 14.34 529 13.68 529 13 C534.28440365 10.26322272 539.51314752 7.90908833 545.125 5.9375 C545.78242187 5.69451172 546.43984375 5.45152344 547.1171875 5.20117188 C560.41990894 0.48770761 572.92297831 -0.42432234 586.8671875 -0.29296875 C588.64079424 -0.28735853 590.4144057 -0.2830952 592.1880188 -0.28010559 C596.80756964 -0.26876887 601.42682776 -0.23940095 606.04626465 -0.20599365 C610.77950076 -0.17504879 615.51278517 -0.16154861 620.24609375 -0.14648438 C629.49752292 -0.11451804 638.74873692 -0.06346075 648 0 C647.35392086 4.16446006 646.47893791 7.68493088 644.8125 11.5625 C644.36519531 12.60664063 643.91789063 13.65078125 643.45703125 14.7265625 C642.00808045 17.98184607 640.51171674 21.21094178 639 24.4375 C636.49107355 29.81468763 634.30572027 35.2574168 632.21484375 40.80859375 C629.53948859 47.83677755 626.60139634 54.7412556 623.4375 61.5625 C621.35285418 66.09009013 619.62605875 70.67823148 617.96484375 75.375 C616.50684571 79.34169912 614.76572051 83.16268614 613 87 C610.24145811 93.02706632 607.72349829 99.13450989 605.27514648 105.29296875 C600.41204728 117.52122942 595.18864905 129.59660264 589.99365234 141.68652344 C589.16104189 143.62505333 588.330297 145.56438435 587.5 147.50390625 C586.30966097 150.27826414 585.11339362 153.04984154 583.9140625 155.8203125 C580.15441069 164.52287751 576.45215148 173.21774864 573.109375 182.08984375 C570.51701946 188.89021303 567.6744772 195.58029939 564.625 202.1875 C560.02404985 212.20218645 555.9616022 222.47480197 551.921875 232.7265625 C551.18243212 234.55010384 550.4125193 236.36127672 549.6328125 238.16796875 C547.70836988 242.63918618 545.92182331 247.16385443 544.125 251.6875 C535.8163868 272.49980797 535.8163868 272.49980797 532.5 278.9375 C530.12345931 283.58757343 528.28102803 288.35037598 526.453125 293.23828125 C524.73918799 297.75271276 522.83068229 302.18352045 520.9375 306.625 C518.78934379 311.66997969 516.68457676 316.69612759 514.875 321.875 C513.09349456 326.94603961 510.85847967 331.75131531 508.57421875 336.61328125 C504.87185764 344.57841049 501.47756769 352.65841401 498.375 360.875 C496.80520888 365.02444786 495.08064401 368.93419056 493.02734375 372.859375 C491.2504909 376.56171479 489.87148957 380.41885037 488.44140625 384.265625 C486.43967868 389.56809022 484.1959417 394.77589154 482 400 C464.56269783 400.43778472 447.96409757 400.61832506 431 396 C429.24816406 395.566875 429.24816406 395.566875 427.4609375 395.125 C408.63164267 389.99390263 392.38649386 378.83482142 378 366 C377.33097656 365.40445312 376.66195313 364.80890625 375.97265625 364.1953125 C363.47962379 352.37837356 355.42864238 337.22466389 347.97363281 321.97387695 C347.3103852 320.62925384 346.63744074 319.28938046 345.95605469 317.95385742 C343.88581538 313.89341384 342.08244675 309.84472921 340.5 305.5625 C338.88794591 301.21104318 337.12335348 296.97551854 335.22216797 292.74584961 C333.72113529 289.37347355 332.25995768 285.98437101 330.80078125 282.59375 C330.22593875 281.2604049 329.65106862 279.92707171 329.07617188 278.59375 C328.18627646 276.52913319 327.29712768 274.46420748 326.40991211 272.3984375 C325.54236037 270.37927051 324.67183943 268.36140631 323.80078125 266.34375 C323.28684814 265.14943359 322.77291504 263.95511719 322.2434082 262.72460938 C321.25509799 260.13852653 321.25509799 260.13852653 320 259 C318.01243568 263.26771425 316.0956963 267.50257305 314.6875 272 C313.28892041 276.37717611 311.53336385 280.58178989 309.75 284.8125 C307.07332643 291.17323554 304.71473227 297.59001089 302.5 304.125 C299.55349407 312.7354637 296.1297823 320.88621802 292 329 C291.67354492 329.64340332 291.34708984 330.28680664 291.01074219 330.94970703 C276.24123686 359.83024982 254.83008774 382.49800573 224 394 C222.89398438 394.45439453 222.89398438 394.45439453 221.765625 394.91796875 C204.38847609 401.55226785 185.24198415 400.35184836 167 400 C165.92909953 397.94152562 164.86850979 395.87860611 163.8125 393.8125 C163.22082031 392.66394531 162.62914062 391.51539063 162.01953125 390.33203125 C159.81012215 385.79259877 158.0772828 381.08511884 156.29223633 376.36645508 C154.29771906 371.17046064 152.12096544 366.05633405 149.9375 360.9375 C149.47069824 359.83768799 149.00389648 358.73787598 148.52294922 357.60473633 C145.96200354 351.57865701 143.38314069 345.56043099 140.79296875 339.546875 C140.25854392 338.30476931 139.72412008 337.0626632 139.18969727 335.82055664 C138.17834906 333.47231625 137.16467452 331.12507579 136.14819336 328.77905273 C133.31255998 322.19958466 130.64135576 315.58170223 128.12182617 308.87451172 C127.06876203 306.17619242 125.91798659 303.5588636 124.6875 300.9375 C121.8354927 294.81831978 119.39036867 288.54462989 116.94213867 282.25561523 C115.13666558 277.66277674 113.1623051 273.26229264 110.90844727 268.8737793 C109.51570542 266.00108549 108.51676014 263.02280041 107.5 260 C105.93528716 255.50145059 104.26426385 251.31309256 102.03125 247.1171875 C100.19106114 243.33922401 98.80245948 239.37893624 97.34375 235.44140625 C96.34882456 232.89335593 95.30976728 230.42021801 94.1875 227.9296875 C91.46625195 221.87261311 88.99394234 215.71581005 86.5 209.5625 C86.02691406 208.39912109 85.55382812 207.23574219 85.06640625 206.03710938 C82.95973115 200.85212093 80.86577023 195.66340033 78.8125 190.45703125 C77.53071317 187.24440617 76.15031792 184.16916751 74.5 181.125 C72.64857998 177.52345345 71.27477979 173.98819866 70.0625 170.125 C68.34828159 164.69547558 66.03703406 159.81058738 63.3671875 154.7890625 C61.9532173 151.9045633 60.97378813 149.05879417 60 146 C56.76388172 137.22725758 53.37783125 128.55269732 49.0625 120.25 C47.45130394 117.06464687 46.13413181 113.84001281 44.875 110.5 C42.36263847 103.83950261 39.66770929 97.26151727 36.9375 90.6875 C36.51388184 89.66140625 36.09026367 88.6353125 35.65380859 87.578125 C33.55455565 82.53926268 31.35886754 77.61173473 28.86889648 72.75463867 C27.58939049 70.1708203 26.57164043 67.51168875 25.5625 64.8125 C25.1396875 63.69488281 24.716875 62.57726563 24.28125 61.42578125 C23.44672866 59.19445437 22.61333779 56.96270427 21.78125 54.73046875 C19.23109485 47.97092288 16.42546018 41.40466529 13.33203125 34.875 C12.12730776 32.2747757 11.0531908 29.66418725 10 27 C9.69320313 26.227771 9.38640625 25.45554199 9.0703125 24.65991211 C8.75835937 23.87366455 8.44640625 23.08741699 8.125 22.27734375 C7.4167134 20.49737724 6.70837872 18.71742986 6 16.9375 C5.64421875 16.03966797 5.2884375 15.14183594 4.921875 14.21679688 C4.57640625 13.34990234 4.2309375 12.48300781 3.875 11.58984375 C3.56304687 10.80472412 3.25109375 10.01960449 2.9296875 9.21069336 C2.03412352 6.98749303 2.03412352 6.98749303 0.8828125 4.90063477 C0 3 0 3 0 0 Z M62 41 C63.97944285 50.35736621 67.95717191 58.8100215 72 67.4375 C75.48010927 74.90504906 78.36297745 82.55891623 81.2109375 90.28515625 C83.66359573 96.83859656 86.46104455 103.01922355 89.6640625 109.23828125 C91.14839919 112.30677845 92.16842214 115.3549958 93.1640625 118.60546875 C94.2063571 121.59110703 95.52561024 124.39025266 96.875 127.25 C99.4392966 132.68884143 101.66643298 138.183485 103.78515625 143.80859375 C106.443708 150.79263485 109.36003195 157.65713149 112.5 164.4375 C114.82169758 169.47993693 116.79074574 174.6204762 118.75 179.8125 C119.90706004 182.7630031 121.16375951 185.62708294 122.5 188.5 C124.85594638 193.56639254 126.84623969 198.73345188 128.82421875 203.95703125 C130.40304875 208.04310624 132.19162006 212.01182203 134 216 C137.85622321 224.64644772 141.54357367 233.2946171 144.875 242.16015625 C145.86833787 244.66764457 146.95522958 247.04091526 148.1875 249.4375 C149.80885771 252.62430654 150.89442291 255.61417017 152 259 C152.59114154 260.35990308 153.19686856 261.7135068 153.8125 263.0625 C155.50170634 266.78501027 156.99471522 270.55025921 158.4375 274.375 C160.35053879 279.41793406 162.47635097 284.29915458 164.75 289.1875 C166.59008815 293.32769833 168.14800695 297.56650118 169.74609375 301.8046875 C170.9218699 304.80090212 172.20374368 307.7080369 173.5625 310.625 C175.2273693 314.20369103 176.68719368 317.77774592 178 321.5 C179.59358763 326.0088412 181.47597035 330.28575448 183.50390625 334.61328125 C185.93554279 340.11779529 188.08358347 345.7392014 190.23339844 351.35913086 C190.72694824 352.62382202 190.72694824 352.62382202 191.23046875 353.9140625 C191.52332764 354.6767041 191.81618652 355.4393457 192.11791992 356.22509766 C192.87039838 358.1860064 192.87039838 358.1860064 195 359 C210.48180855 356.46016169 222.64197955 349.53474524 235 340 C233.16984207 334.30617532 231.1910437 328.67430352 229.125 323.0625 C228.89280762 322.41925781 228.66061523 321.77601563 228.42138672 321.11328125 C227.01505236 317.33027021 225.40267338 313.75153753 223.55859375 310.16015625 C220.94435891 305.03129048 218.90834934 299.7780499 216.9375 294.375 C214.85200192 288.67601515 212.71847299 283.1427853 209.88305664 277.76977539 C208.63479144 275.26806832 207.72036389 272.67383209 206.7734375 270.046875 C205.97141474 267.92435011 205.066673 265.87664721 204.125 263.8125 C202.45879326 260.13164024 200.98949961 256.40498328 199.5625 252.625 C197.9863848 248.46715009 196.31464135 244.4056716 194.4375 240.375 C192.7726307 236.79630897 191.31280632 233.22225408 190 229.5 C188.73737717 225.92757905 187.35597205 222.49392694 185.75 219.0625 C182.8744454 212.90186909 180.40769767 206.5893498 177.94238281 200.25610352 C176.12255678 195.6270006 174.13953418 191.17812741 171.8684082 186.75366211 C170.76082617 184.51701275 169.92291103 182.23833648 169.125 179.875 C167.58539754 175.49864971 165.85224472 171.25364743 164 167 C162.17561751 162.80712094 160.45704216 158.62504677 158.9375 154.3125 C157.27010455 149.58821289 155.26253817 145.08796207 153.15234375 140.546875 C151.89931722 137.77747399 150.83310958 134.98040194 149.796875 132.125 C148.44980734 128.53281958 146.93771142 125.00972811 145.453125 121.47265625 C144.09242602 118.22087831 142.74592083 114.96374322 141.40600586 111.70336914 C140.79882374 110.2267271 140.19024766 108.75065753 139.58032227 107.27514648 C138.29443391 104.16298431 137.01963038 101.0501877 135.79296875 97.9140625 C133.22085148 91.42469243 130.1620103 85.2469574 126.9375 79.0625 C126.51364014 78.24475098 126.08978027 77.42700195 125.65307617 76.58447266 C123.43904187 72.40360836 121.26471852 68.47534552 118 65 C117.34 65 116.68 65 116 65 C115.74476562 64.41734375 115.48953125 63.8346875 115.2265625 63.234375 C108.96431518 51.82671427 93.0983099 45.95474334 81.25 42.5 C74.76376397 40.92841465 68.64585131 40.55446807 62 41 Z M535 60 C534.38253906 60.54914062 533.76507812 61.09828125 533.12890625 61.6640625 C531.24704671 63.37973145 531.24704671 63.37973145 529 66 C529 66.99 529 67.98 529 69 C527.515 69.495 527.515 69.495 526 70 C520.26393638 77.86620793 516.77226491 86.95379461 513.375 96 C512.46734642 98.37545909 511.55850212 100.75046357 510.6484375 103.125 C510.20983398 104.27355469 509.77123047 105.42210938 509.31933594 106.60546875 C507.30903117 111.77779988 505.16938601 116.89270537 503 122 C502.7102832 122.68239746 502.42056641 123.36479492 502.12207031 124.06787109 C500.94986688 126.81337472 499.76037833 129.55126078 498.5703125 132.2890625 C494.67781915 141.27335796 491.10706281 150.35407204 487.68359375 159.52734375 C487.03583984 161.24630859 487.03583984 161.24630859 486.375 163 C485.79878906 164.546875 485.79878906 164.546875 485.2109375 166.125 C484 169 484 169 482.515625 171.4375 C480.69135174 174.52183829 479.57772828 177.62392061 478.375 181 C475.97506251 187.60447913 473.3055917 194.05809431 470.5 200.5 C467.44872905 207.51467919 464.58859452 214.55656412 461.95922852 221.73950195 C460.45927618 225.82543337 458.81044909 229.79009825 456.9921875 233.7421875 C455.75187001 236.56464227 454.65914743 239.43124619 453.5625 242.3125 C450.52615646 250.28404844 447.23937698 258.13352612 443.859375 265.96484375 C439.24055409 276.67246206 434.82548416 287.39086386 430.765625 298.32421875 C428.89989535 303.28222254 427.02071137 308.11598115 424.5625 312.8125 C421.04264756 319.5960131 418.56324703 326.81388809 416 334 C415.59394531 335.10085938 415.18789063 336.20171875 414.76953125 337.3359375 C413.72316184 339.97160645 413.72316184 339.97160645 414.875 342.375 C415.24625 342.91125 415.6175 343.4475 416 344 C416.66 344 417.32 344 418 344 C418 344.66 418 345.32 418 346 C426.02673873 350.30156344 433.97193188 354.28506377 442.6875 357 C443.34556641 357.20713623 444.00363281 357.41427246 444.68164062 357.62768555 C448.20576967 358.67010401 451.3260862 359.22479014 455 359 C455.37511719 358.05640625 455.75023437 357.1128125 456.13671875 356.140625 C459.81616581 346.90270994 463.52266786 337.67721948 467.5 328.5625 C468.89343076 325.25310195 470.17008267 321.92173377 471.4375 318.5625 C472.81549777 314.94679839 474.20278236 311.42708302 476 308 C478.84484005 302.55024617 480.84757877 296.74846031 483 291 C483.87153447 288.68619168 484.74644565 286.37365199 485.625 284.0625 C486.20121094 282.53302734 486.20121094 282.53302734 486.7890625 280.97265625 C488.04466123 277.89036389 489.49970189 274.96997789 491 272 C491.97637622 269.82049352 492.93393004 267.63248209 493.875 265.4375 C494.34679687 264.34308594 494.81859375 263.24867188 495.3046875 262.12109375 C496.72611676 258.73213949 498.03640356 255.30553378 499.34375 251.87109375 C501.95111483 245.05503281 504.76098497 238.3365517 507.625 231.625 C508.10195313 230.50222656 508.57890625 229.37945312 509.0703125 228.22265625 C510.90080648 223.9159107 512.73462575 219.61087091 514.59375 215.31640625 C516.42076237 211.00770207 518.14762637 206.6619128 519.875 202.3125 C524.27086203 191.28779818 528.84187648 180.35010845 533.52734375 169.4453125 C536.15037051 163.30868225 538.70589762 157.14397913 541.24609375 150.97265625 C543.24809735 146.12668491 545.29390987 141.31938184 547.5 136.5625 C549.79860343 131.56898221 551.77760819 126.48796134 553.69140625 121.3359375 C554.70369301 118.75536169 555.76971796 116.24431523 556.90625 113.71875 C559.06579364 108.91044244 561.00897848 104.02957657 562.9375 99.125 C565.44638953 92.792321 568.04109553 86.53775192 570.921875 80.36328125 C572.38806181 77.14935727 573.67978742 73.8765344 574.97265625 70.58984375 C576.09720109 67.75496456 577.26269314 64.9394127 578.4375 62.125 C578.85257813 61.12855469 579.26765625 60.13210937 579.6953125 59.10546875 C580.5974021 56.95827944 581.50952388 54.81528738 582.4296875 52.67578125 C582.88601563 51.60714844 583.34234375 50.53851563 583.8125 49.4375 C584.23144531 48.46683594 584.65039062 47.49617188 585.08203125 46.49609375 C586.17258039 43.97398481 586.17258039 43.97398481 586 41 C567.64616177 39.62632396 548.53534459 47.7578412 535 60 Z M364 142 C360.77210969 148.74143463 357.95683597 155.58918159 355.37475586 162.59936523 C353.74834495 167.0140566 352.06998713 171.40296766 350.33544922 175.77636719 C349.43982004 178.0565933 348.57706661 180.3475942 347.71484375 182.640625 C346.65523326 185.42965157 345.4871985 188.07910974 344.12890625 190.734375 C341.30299564 196.94189086 340.29094936 200.70146717 342.48828125 207.14453125 C344.33876924 211.76474448 346.49744747 216.20947509 348.77832031 220.63085938 C350.34667548 223.67228993 351.76863048 226.76115662 353.1875 229.875 C353.65542969 230.87273437 354.12335938 231.87046875 354.60546875 232.8984375 C356.45643567 237.01515385 358.09968517 241.20663443 359.74853516 245.40673828 C362.24776425 251.72582113 365.10697753 257.854282 368 264 C372.21582995 273.17002561 376.17766568 282.36216511 379.71875 291.81640625 C380.98973622 294.97449701 382.43651365 297.97756273 384 301 C386.5304076 297.93878851 387.89608294 295.0357719 389.25 291.3125 C391.23156404 285.99450734 393.31907825 280.73927316 395.5 275.5 C398.02646024 269.40785043 400.50260537 263.30519622 402.77734375 257.11328125 C404 254 404 254 405.62890625 250.73046875 C408.64762284 244.57354084 408.64762284 244.57354084 408.15234375 237.97265625 C406.69427658 235.01676555 406.69427658 235.01676555 404.9765625 232.4375 C402.60757121 228.31751515 401.06380616 224.09161035 399.40087891 219.64746094 C396.9319445 213.2191096 394.13534599 206.93234348 391.375 200.625 C390.79661559 199.29829014 390.21848963 197.97146758 389.640625 196.64453125 C388.58022181 194.20973762 387.51808189 191.77573421 386.45458984 189.34228516 C384.04576822 183.80741304 381.69032453 178.27594382 379.5625 172.625 C377.86209938 168.17663052 376.09078569 163.79881238 374.1015625 159.47265625 C373.20305152 157.45578586 372.35558485 155.41623896 371.5234375 153.37109375 C371.13079712 152.41384399 371.13079712 152.41384399 370.73022461 151.43725586 C369.96838852 149.57548519 369.21640394 147.70969253 368.46484375 145.84375 C367.26443468 142.70005586 367.26443468 142.70005586 364 142 Z " fill="#F84B00" transform="translate(0,0)"/>
<path d="M0 0 C19.47 0 38.94 0 59 0 C66.42295248 30.40106053 73.72594181 60.83024738 81.0058552 91.26581621 C82.29177558 96.64161097 83.57876095 102.01715035 84.86598247 107.39263368 C86.27784735 113.28877629 87.68889231 119.18511478 89.09959602 125.08153534 C89.69222536 127.5582164 90.28507007 130.03484594 90.8781414 132.5114212 C91.7012845 135.94917796 92.52349278 139.387157 93.34545898 142.82519531 C93.70619507 144.33052071 93.70619507 144.33052071 94.07421875 145.86625671 C95.43586617 151.56663963 96.74398118 157.27538685 98 163 C98.33 163 98.66 163 99 163 C99.2253392 162.04488525 99.45067841 161.08977051 99.68284607 160.10571289 C100.57905228 156.30709527 101.47527424 152.50848138 102.3714962 148.70986748 C103.00449704 146.02688251 103.63747992 143.34389331 104.27046204 140.66090393 C106.61173055 130.73726787 108.95345368 120.81373934 111.29589844 110.89038086 C112.26371006 106.79021084 113.23147874 102.69003068 114.19921875 98.58984375 C114.56324232 97.04755254 114.56324232 97.04755254 114.9346199 95.47410393 C118.13984385 81.89338342 121.33954591 68.31137787 124.53329659 54.72795486 C125.71388962 49.70792102 126.89577302 44.68819082 128.07774639 39.66848183 C129.18683106 34.95764896 130.2937411 30.24631174 131.39911938 25.53460789 C132.07959469 22.63638483 132.76211732 19.73864692 133.44524193 16.84104729 C133.90891706 14.87144898 134.37006055 12.90125521 134.83113098 10.93104553 C135.10438705 9.77374435 135.37764313 8.61644318 135.65917969 7.42407227 C135.89562195 6.41788345 136.13206421 5.41169464 136.37567139 4.37501526 C137 2 137 2 138 0 C157.47 0 176.94 0 197 0 C201.59599647 17.23498677 201.59599647 17.23498677 203.59033203 25.65917969 C203.81869247 26.61642441 204.04705292 27.57366913 204.28233337 28.55992126 C205.02613806 31.68010524 205.76704483 34.80096874 206.5078125 37.921875 C207.03849992 40.15158493 207.56933616 42.38125944 208.10031128 44.61090088 C209.2126695 49.28375804 210.32366472 53.95693636 211.43359375 58.63037109 C212.82301509 64.4804345 214.21512135 70.32985449 215.60817337 76.17905426 C222.49483703 105.09878853 229.30267479 134.03582265 236 163 C236.33 163 236.66 163 237 163 C237.13508657 162.43057489 237.27017315 161.86114979 237.40935326 161.27446938 C240.75074618 147.18968078 244.09233366 133.10493836 247.43411827 119.02024269 C249.05040685 112.20801511 250.66663602 105.39577344 252.28271484 98.58349609 C255.66722111 84.31687812 259.05254941 70.05045611 262.4398613 55.78450394 C264.08317795 48.86325212 265.72531727 41.94172285 267.36622429 35.01989937 C268.3098437 31.0405565 269.25455524 27.06147356 270.19960403 23.08246994 C270.62972711 21.27047263 271.05938157 19.45836401 271.48853683 17.64613724 C272.06745007 15.20178281 272.64800814 12.75782497 273.22900391 10.31396484 C273.47964033 9.25295626 273.47964033 9.25295626 273.73534012 8.17051315 C274.39558096 5.39984891 275.09862107 2.70413679 276 0 C295.14 0 314.28 0 334 0 C333.32215841 6.10057432 332.51718186 11.7094262 331.08007812 17.61108398 C330.78820177 18.83856668 330.78820177 18.83856668 330.49042892 20.09084702 C329.8424329 22.81049997 329.18680323 25.5282534 328.53125 28.24609375 C328.06221514 30.20864417 327.59370296 32.17131957 327.12567139 34.1341095 C326.11791586 38.35620503 325.10692826 42.5775082 324.09338379 46.79821777 C322.48483832 53.49731145 320.88362283 60.19814203 319.28417969 66.89941406 C318.87741312 68.60360787 318.87741312 68.60360787 318.46242905 70.34222984 C317.90724969 72.66831054 317.3520983 74.99439791 316.79697418 77.32049179 C315.94527613 80.88834854 315.09290052 84.4560429 314.24041748 88.02371216 C308.13287323 113.591898 302.09849475 139.17726702 296.07113647 164.76445389 C294.98651713 169.3684276 293.90138079 173.9722794 292.81623459 178.57612896 C290.66617795 187.69804875 288.51664484 196.82009173 286.36816406 205.94238281 C286.18642891 206.71398963 286.00469376 207.48559645 285.81745148 208.28058529 C283.87708391 216.52010407 281.93879738 224.76011115 280 233 C256.57 233 233.14 233 209 233 C204.40468617 215.76757312 204.40468617 215.76757312 202.33374023 207.11303711 C202.09723251 206.13135056 201.86072479 205.149664 201.61705017 204.13822937 C200.84580217 200.93502189 200.07716594 197.73119421 199.30859375 194.52734375 C198.75788894 192.23755786 198.20702791 189.94780955 197.65602112 187.65809631 C196.2069947 181.63466381 194.76022519 175.6106914 193.31390381 169.58660889 C192.16533624 164.80428356 191.01521224 160.02233328 189.8649807 155.24040794 C185.14418629 135.61415084 180.4254422 115.98742142 175.74267578 96.35205078 C175.48483968 95.27145291 175.22700357 94.19085505 174.96135426 93.07751179 C173.74426839 87.97647723 172.52846975 82.87514365 171.31529236 77.7731781 C170.8874119 75.97841161 170.45948216 74.18365686 170.03149414 72.38891602 C169.74237372 71.16949531 169.74237372 71.16949531 169.44741249 69.92543983 C168.72619688 66.90577937 167.98232957 63.94698872 167 61 C166.55158758 62.90575278 166.10317524 64.81150558 165.65476322 66.71725845 C165.24264685 68.46875157 164.83052915 70.22024437 164.4184103 71.97173691 C163.22146047 77.05874682 162.02453624 82.14576275 160.82765198 87.23278809 C158.39597253 97.56785409 155.9641139 107.90287779 153.53145313 118.23771286 C152.15497225 124.08553243 150.77862349 129.93338309 149.40234375 135.78125 C148.99120488 137.5281802 148.99120488 137.5281802 148.57176018 139.31040192 C145.19682659 153.65150923 141.82685163 167.99376176 138.46605301 182.33818817 C137.34732359 187.11220026 136.22740818 191.88593429 135.10750771 196.65967178 C134.08540252 201.01736272 133.06550846 205.37556377 132.04721165 209.73414612 C131.57544101 211.75173303 131.10255338 213.769054 130.62913513 215.78625488 C130.06409089 218.19392121 129.50085913 220.60201396 128.93983459 223.01062012 C128.69615646 224.04642212 128.45247833 225.08222412 128.20141602 226.14941406 C127.99178726 227.04533264 127.78215851 227.94125122 127.56617737 228.86431885 C127 231 127 231 126 233 C102.57 233 79.14 233 55 233 C27.11327412 116.82826896 27.11327412 116.82826896 13.61494827 59.98914719 C12.87826647 56.88874727 12.14056273 53.78859219 11.40255737 50.68850708 C10.24665519 45.83241299 9.09347196 40.97568126 7.94244576 36.11842918 C7.52715124 34.36757819 7.11100976 32.6169278 6.69389153 30.86651039 C6.12396589 28.47393574 5.55743898 26.08057911 4.99169922 23.68701172 C4.83291259 23.02374154 4.67412596 22.36047136 4.51052761 21.67710209 C2.81735488 14.48068926 1.45291085 7.26455424 0 0 Z " fill="#FF4D00" transform="translate(757,131)"/>
<path d="M0 0 C5.71496486 5.58796564 10.4047652 11.50196963 13.8125 18.75 C14.53953125 17.84378906 15.2665625 16.93757813 16.015625 16.00390625 C27.53517134 1.92725679 41.1869405 -9.49495075 59.8125 -12.25 C63.92108842 -12.54129749 68.007297 -12.57498545 72.125 -12.5625 C73.17623047 -12.57861328 74.22746094 -12.59472656 75.31054688 -12.61132812 C90.46006128 -12.62063944 104.03486216 -8.07301627 115.1875 2.4375 C131.60802888 20.0575805 134.00851866 43.35367063 133.92602539 66.39355469 C133.92617142 67.48770691 133.92631744 68.58185913 133.9264679 69.70916748 C133.92577829 73.28009106 133.91803102 76.85096068 133.91015625 80.421875 C133.90828868 82.91579154 133.90686638 85.40970845 133.90586853 87.90362549 C133.90207003 94.4334008 133.89226279 100.96315348 133.88116455 107.49291992 C133.86843781 115.34588989 133.86453548 123.198872 133.85871124 131.05184937 C133.84904939 142.95124859 133.82987421 154.85059829 133.8125 166.75 C114.6725 166.75 95.5325 166.75 75.8125 166.75 C75.84730469 159.139375 75.88210937 151.52875 75.91796875 143.6875 C75.93331455 138.8385339 75.94775768 133.98959814 75.95898438 129.140625 C75.97685149 121.46022245 75.99788714 113.77992817 76.03881836 106.09960938 C76.0716429 99.90095846 76.08940136 93.70242381 76.09713173 87.50369263 C76.10263404 85.15005669 76.11337751 82.79642642 76.12969017 80.44284058 C77.0705418 57.44368119 77.0705418 57.44368119 68.8125 36.75 C62.8709307 31.388096 57.43990616 31.23796329 49.6875 31.41015625 C42.65805854 32.0266496 37.35577618 34.78624466 32.5 39.875 C20.84583058 55.24928565 21.35615478 74.96664825 21.30078125 93.3125 C21.2838968 95.44198617 21.26574164 97.57146261 21.24638367 99.70092773 C21.19928609 105.25078282 21.16921813 110.80059843 21.14294434 116.35058594 C21.10763833 123.03903192 21.05074244 129.72732635 20.99755096 136.41564941 C20.91951017 146.52707912 20.86854717 156.63831694 20.8125 166.75 C2.0025 166.75 -16.8075 166.75 -36.1875 166.75 C-36.23648438 159.59570312 -36.28546875 152.44140625 -36.3359375 145.0703125 C-36.37137517 140.50389318 -36.40736442 135.93749122 -36.4453125 131.37109375 C-36.50532761 124.14309341 -36.56343887 116.91511703 -36.609375 109.68701172 C-36.64659053 103.85137459 -36.69304223 98.0158738 -36.74556351 92.18035507 C-36.76391685 89.96796974 -36.77909285 87.7555554 -36.79084396 85.54312515 C-35.42055571 59.53544567 -35.42055571 59.53544567 -43.609375 36.14453125 C-50.15266399 30.36246648 -57.99193014 31.2794819 -66.1875 31.75 C-72.76703105 33.02767652 -77.7109257 36.54902772 -81.75 41.76953125 C-89.88825626 54.03795257 -91.29408461 68.94523061 -91.39282227 83.30883789 C-91.40272186 84.21723419 -91.41262146 85.12563049 -91.42282104 86.06155396 C-91.45413638 89.03189586 -91.47907357 92.0022537 -91.50390625 94.97265625 C-91.52450173 97.04488007 -91.54549884 99.11709993 -91.56687927 101.1893158 C-91.62183219 106.61926044 -91.67135857 112.04924129 -91.71972656 117.47924805 C-91.7790158 124.0072802 -91.84509512 130.53524679 -91.91002655 137.06322479 C-92.00769866 146.95877617 -92.09678525 156.85437139 -92.1875 166.75 C-110.9975 166.75 -129.8075 166.75 -149.1875 166.75 C-149.1875 109 -149.1875 51.25 -149.1875 -8.25 C-130.3775 -8.25 -111.5675 -8.25 -92.1875 -8.25 C-91.6925 3.135 -91.6925 3.135 -91.1875 14.75 C-89.95 13.120625 -88.7125 11.49125 -87.4375 9.8125 C-65.32428009 -17.1184904 -27.71384939 -19.56271721 0 0 Z " fill="#FF4D00" transform="translate(3128.1875,197.25)"/>
<path d="M0 0 C19.14 0 38.28 0 58 0 C58 80.19 58 160.38 58 243 C38.86 243 19.72 243 0 243 C-0.33 236.07 -0.66 229.14 -1 222 C-2.258125 223.485 -3.51625 224.97 -4.8125 226.5 C-15.5087709 238.33452821 -30.02626783 246.80907169 -46.13037109 248.28735352 C-49.40471241 248.40068269 -52.66150577 248.40974832 -55.9375 248.375 C-57.02740234 248.38660156 -58.11730469 248.39820313 -59.24023438 248.41015625 C-77.96477417 248.3434021 -92.74480432 240.92688171 -106.125 228.1875 C-116.09908411 217.85790398 -122.71749901 205.11591926 -126.8125 191.4375 C-127.10471436 190.46671509 -127.10471436 190.46671509 -127.40283203 189.47631836 C-135.43648386 160.77105404 -132.61607472 128.62336439 -119.4921875 101.93359375 C-115.98869055 95.81683268 -111.59850365 90.32550518 -107 85 C-106.09314453 83.948125 -106.09314453 83.948125 -105.16796875 82.875 C-95.2994984 72.23782775 -80.96686552 64.80706767 -66.37548828 63.82299805 C-42.79742366 63.30793328 -24.82371335 66.29861942 -7 83 C-5.02 85.31 -3.04 87.62 -1 90 C-0.505 45.45 -0.505 45.45 0 0 Z M-62 117 C-66.86284181 123.44711607 -69.3830793 130.13641445 -71 138 C-71.18433594 138.86109375 -71.36867188 139.7221875 -71.55859375 140.609375 C-73.92583567 158.79314478 -73.00689274 178.1909887 -63 194 C-58.20996147 200.21805471 -52.35758608 203.54747131 -45 206 C-33.21296853 206.72407746 -23.80990703 206.58359127 -13.75 199.8125 C-1.82437101 187.61583399 0.18109275 172.82881323 0.25 156.4375 C0.270625 155.23802734 0.29125 154.03855469 0.3125 152.80273438 C0.37126976 139.19018796 -2.43771622 127.74073166 -9.75 116.25 C-16.47417328 109.52582672 -23.94748506 105.80731212 -33.47119141 105.61938477 C-45.53368865 105.64831463 -53.61508361 107.76597815 -62 117 Z " fill="#FF4D00" transform="translate(1678,121)"/>
<path d="M0 0 C0.89758026 0.00432037 1.79516052 0.00864075 2.71994019 0.01309204 C29.2668006 0.16253143 54.32185219 4.38891423 79.9375 11.375 C79.9375 27.875 79.9375 44.375 79.9375 61.375 C75.91644798 60.5707896 72.46377044 59.58909351 68.625 58.23046875 C48.0751584 51.0715689 29.28111377 46.07353946 7.375 45.9375 C6.69536194 45.93087341 6.01572388 45.92424683 5.31549072 45.91741943 C-7.24522265 45.84472175 -19.23977873 46.82599424 -29.0625 55.375 C-33.20766311 60.81552659 -33.68889742 66.71662738 -33.0625 73.375 C-31.33350512 78.3698741 -28.60828462 81.72212947 -24.0625 84.375 C-12.75956967 89.3369348 -0.7977831 91.51449022 11.25 93.875 C69.5408039 105.36152308 69.5408039 105.36152308 85.83984375 128.01953125 C97.5902428 146.57671537 97.6881665 169.64225292 93.49267578 190.59667969 C89.8717983 206.25941642 81.2741125 219.90043434 67.875 228.9375 C51.56672132 238.81996235 33.02442331 243.43250704 14.015625 243.61328125 C12.74164352 243.62797203 12.74164352 243.62797203 11.44192505 243.64295959 C-23.39509577 243.96138911 -54.0250639 239.03527156 -87.0625 227.375 C-87.0625 210.215 -87.0625 193.055 -87.0625 175.375 C-83.39696351 176.5968455 -80.246088 177.66265402 -76.83984375 179.29296875 C-53.31195848 190.34605848 -30.21783486 197.61004726 -4.0625 197.875 C-2.87011719 197.89361084 -1.67773438 197.91222168 -0.44921875 197.93139648 C10.20327867 197.85511678 20.31924548 195.89692234 28.9375 189.375 C29.5975 189.375 30.2575 189.375 30.9375 189.375 C34.75953547 182.08142139 37.32952778 174.51963447 34.9375 166.375 C31.86835474 159.4908216 27.62103961 155.98268396 20.6796875 152.953125 C19.39594162 152.49522838 18.10626775 152.05376311 16.8125 151.625 C15.70455078 151.25375 15.70455078 151.25375 14.57421875 150.875 C5.84090038 148.11283419 -3.11737812 146.30031604 -12.0625 144.375 C-37.46462217 138.89764726 -63.78943693 132.52736328 -80.0625 110.375 C-90.91347771 92.63451263 -92.16090338 71.25779795 -87.58544922 51.29345703 C-83.40739899 35.36730265 -74.12906653 21.73138672 -60.00878906 13.01708984 C-41.15219307 2.11251198 -21.34887851 -0.1955021 0 0 Z " fill="#FF4D00" transform="translate(2090.0625,125.625)"/>
<path d="M0 0 C2.965783 0.0031751 5.93057821 -0.02047392 8.89624023 -0.0456543 C32.77427214 -0.12516847 58.70592822 3.05261455 76.96459961 20.13208008 C91.02094983 35.97381349 95.27430486 55.58404218 95.12915039 76.34814453 C95.12944244 77.47170349 95.1297345 78.59526245 95.1300354 79.75286865 C95.12865737 83.41581319 95.11316891 87.07854668 95.09741211 90.74145508 C95.09367654 93.30120228 95.09083214 95.86095092 95.08883667 98.42070007 C95.0820165 104.43748132 95.06630174 110.45417389 95.04613769 116.47091979 C95.02144709 124.0044433 95.01061052 131.53797924 94.99975586 139.0715332 C94.98036704 152.4863042 94.94028808 165.90091396 94.90209961 179.31567383 C76.09209961 179.31567383 57.28209961 179.31567383 37.90209961 179.31567383 C37.40709961 168.92067383 37.40709961 168.92067383 36.90209961 158.31567383 C34.88084961 160.46067383 32.85959961 162.60567383 30.77709961 164.81567383 C16.10810562 179.7223758 -0.146706 184.63325504 -20.66040039 184.81567383 C-38.94757173 184.67769531 -54.22185273 180.65376812 -67.80883789 167.80004883 C-79.19800777 155.43910677 -83.61353616 140.09745986 -83.28149414 123.57348633 C-82.40075115 107.94498305 -77.32762525 95.05349725 -65.97290039 84.19067383 C-44.82113194 66.1515402 -14.51233818 66.85838197 11.58959961 67.12817383 C14.15274272 67.14325973 16.71589449 67.15694117 19.27905273 67.16918945 C25.48692785 67.20185776 31.69447173 67.25174243 37.90209961 67.31567383 C37.61425173 65.22214923 37.31684662 63.12993712 37.01538086 61.03833008 C36.76848511 59.29048218 36.76848511 59.29048218 36.51660156 57.50732422 C35.55113393 52.49279963 33.30739474 49.76355366 29.83959961 46.19067383 C12.12288918 34.88213525 -17.33679633 37.24146619 -37.19335938 41.46630859 C-45.79757141 43.52258891 -54.49627048 46.37360038 -62.34399414 50.49536133 C-64.09790039 51.31567383 -64.09790039 51.31567383 -67.09790039 51.31567383 C-67.09790039 36.79567383 -67.09790039 22.27567383 -67.09790039 7.31567383 C-62.86977539 6.53192383 -58.64165039 5.74817383 -54.28540039 4.94067383 C-52.99657959 4.69784668 -51.70775879 4.45501953 -50.37988281 4.20483398 C-33.6010536 1.15504014 -17.04710525 -0.03802328 0 0 Z M-18.96508789 107.95629883 C-24.36997515 113.90426089 -25.57205858 119.3744137 -25.40649414 127.31176758 C-24.68548813 134.33016781 -21.3368303 138.62482808 -16.07446289 143.08911133 C-8.22459868 147.96037094 3.08183995 147.57471964 11.91772461 145.66333008 C22.5603267 141.76438938 29.97126313 134.4178754 34.90209961 124.31567383 C37.88784704 116.28284445 38.03341209 108.79434021 37.90209961 100.31567383 C7.95495597 98.03942317 7.95495597 98.03942317 -18.96508789 107.95629883 Z " fill="#FF4D00" transform="translate(2833.097900390625,184.684326171875)"/>
<path d="M0 0 C2.965783 0.0031751 5.93057821 -0.02047392 8.89624023 -0.0456543 C32.77427214 -0.12516847 58.70592822 3.05261455 76.96459961 20.13208008 C91.02094983 35.97381349 95.27430486 55.58404218 95.12915039 76.34814453 C95.12944244 77.47170349 95.1297345 78.59526245 95.1300354 79.75286865 C95.12865737 83.41581319 95.11316891 87.07854668 95.09741211 90.74145508 C95.09367654 93.30120228 95.09083214 95.86095092 95.08883667 98.42070007 C95.0820165 104.43748132 95.06630174 110.45417389 95.04613769 116.47091979 C95.02144709 124.0044433 95.01061052 131.53797924 94.99975586 139.0715332 C94.98036704 152.4863042 94.94028808 165.90091396 94.90209961 179.31567383 C76.09209961 179.31567383 57.28209961 179.31567383 37.90209961 179.31567383 C37.40709961 168.92067383 37.40709961 168.92067383 36.90209961 158.31567383 C34.88084961 160.46067383 32.85959961 162.60567383 30.77709961 164.81567383 C16.10810562 179.7223758 -0.146706 184.63325504 -20.66040039 184.81567383 C-38.94757173 184.67769531 -54.22185273 180.65376812 -67.80883789 167.80004883 C-79.19800777 155.43910677 -83.61353616 140.09745986 -83.28149414 123.57348633 C-82.40075115 107.94498305 -77.32762525 95.05349725 -65.97290039 84.19067383 C-44.82113194 66.1515402 -14.51233818 66.85838197 11.58959961 67.12817383 C14.15274272 67.14325973 16.71589449 67.15694117 19.27905273 67.16918945 C25.48692785 67.20185776 31.69447173 67.25174243 37.90209961 67.31567383 C37.61425173 65.22214923 37.31684662 63.12993712 37.01538086 61.03833008 C36.76848511 59.29048218 36.76848511 59.29048218 36.51660156 57.50732422 C35.55113393 52.49279963 33.30739474 49.76355366 29.83959961 46.19067383 C12.12288918 34.88213525 -17.33679633 37.24146619 -37.19335938 41.46630859 C-45.79757141 43.52258891 -54.49627048 46.37360038 -62.34399414 50.49536133 C-64.09790039 51.31567383 -64.09790039 51.31567383 -67.09790039 51.31567383 C-67.09790039 36.79567383 -67.09790039 22.27567383 -67.09790039 7.31567383 C-62.86977539 6.53192383 -58.64165039 5.74817383 -54.28540039 4.94067383 C-52.99657959 4.69784668 -51.70775879 4.45501953 -50.37988281 4.20483398 C-33.6010536 1.15504014 -17.04710525 -0.03802328 0 0 Z M-18.96508789 107.95629883 C-24.36997515 113.90426089 -25.57205858 119.3744137 -25.40649414 127.31176758 C-24.68548813 134.33016781 -21.3368303 138.62482808 -16.07446289 143.08911133 C-8.22459868 147.96037094 3.08183995 147.57471964 11.91772461 145.66333008 C22.5603267 141.76438938 29.97126313 134.4178754 34.90209961 124.31567383 C37.88784704 116.28284445 38.03341209 108.79434021 37.90209961 100.31567383 C7.95495597 98.03942317 7.95495597 98.03942317 -18.96508789 107.95629883 Z " fill="#FF4D00" transform="translate(1858.097900390625,184.684326171875)"/>
<path d="M0 0 C2.965783 0.0031751 5.93057821 -0.02047392 8.89624023 -0.0456543 C32.77427214 -0.12516847 58.70592822 3.05261455 76.96459961 20.13208008 C91.02094983 35.97381349 95.27430486 55.58404218 95.12915039 76.34814453 C95.12944244 77.47170349 95.1297345 78.59526245 95.1300354 79.75286865 C95.12865737 83.41581319 95.11316891 87.07854668 95.09741211 90.74145508 C95.09367654 93.30120228 95.09083214 95.86095092 95.08883667 98.42070007 C95.0820165 104.43748132 95.06630174 110.45417389 95.04613769 116.47091979 C95.02144709 124.0044433 95.01061052 131.53797924 94.99975586 139.0715332 C94.98036704 152.4863042 94.94028808 165.90091396 94.90209961 179.31567383 C76.09209961 179.31567383 57.28209961 179.31567383 37.90209961 179.31567383 C37.40709961 168.92067383 37.40709961 168.92067383 36.90209961 158.31567383 C34.88084961 160.46067383 32.85959961 162.60567383 30.77709961 164.81567383 C16.10810562 179.7223758 -0.146706 184.63325504 -20.66040039 184.81567383 C-38.94757173 184.67769531 -54.22185273 180.65376812 -67.80883789 167.80004883 C-79.19800777 155.43910677 -83.61353616 140.09745986 -83.28149414 123.57348633 C-82.40075115 107.94498305 -77.32762525 95.05349725 -65.97290039 84.19067383 C-44.82113194 66.1515402 -14.51233818 66.85838197 11.58959961 67.12817383 C14.15274272 67.14325973 16.71589449 67.15694117 19.27905273 67.16918945 C25.48692785 67.20185776 31.69447173 67.25174243 37.90209961 67.31567383 C37.61425173 65.22214923 37.31684662 63.12993712 37.01538086 61.03833008 C36.76848511 59.29048218 36.76848511 59.29048218 36.51660156 57.50732422 C35.55113393 52.49279963 33.30739474 49.76355366 29.83959961 46.19067383 C12.12288918 34.88213525 -17.33679633 37.24146619 -37.19335938 41.46630859 C-45.79757141 43.52258891 -54.49627048 46.37360038 -62.34399414 50.49536133 C-64.09790039 51.31567383 -64.09790039 51.31567383 -67.09790039 51.31567383 C-67.09790039 36.79567383 -67.09790039 22.27567383 -67.09790039 7.31567383 C-62.86977539 6.53192383 -58.64165039 5.74817383 -54.28540039 4.94067383 C-52.99657959 4.69784668 -51.70775879 4.45501953 -50.37988281 4.20483398 C-33.6010536 1.15504014 -17.04710525 -0.03802328 0 0 Z M-18.96508789 107.95629883 C-24.36997515 113.90426089 -25.57205858 119.3744137 -25.40649414 127.31176758 C-24.68548813 134.33016781 -21.3368303 138.62482808 -16.07446289 143.08911133 C-8.22459868 147.96037094 3.08183995 147.57471964 11.91772461 145.66333008 C22.5603267 141.76438938 29.97126313 134.4178754 34.90209961 124.31567383 C37.88784704 116.28284445 38.03341209 108.79434021 37.90209961 100.31567383 C7.95495597 98.03942317 7.95495597 98.03942317 -18.96508789 107.95629883 Z " fill="#FF4D00" transform="translate(1186.097900390625,184.684326171875)"/>
<path d="M0 0 C0.69174316 0.24669434 1.38348633 0.49338867 2.09619141 0.74755859 C23.62147627 8.74042138 39.06361673 23.78900568 49.1875 44.1875 C57.68130004 63.21906266 57 82.04685962 57 103 C14.1 103.33 -28.8 103.66 -73 104 C-68.99623157 121.59233166 -68.99623157 121.59233166 -57 134 C-39.03963647 144.68074775 -15.32980981 143.05094977 4.375 138.25390625 C5.91906774 137.8448967 7.46081218 137.42700683 9 137 C9.75539063 136.79101074 10.51078125 136.58202148 11.2890625 136.36669922 C21.28458345 133.50071544 30.60162777 129.54191817 39.89672852 124.89575195 C40.65139404 124.52023193 41.40605957 124.14471191 42.18359375 123.7578125 C42.84931396 123.4189502 43.51503418 123.08008789 44.20092773 122.73095703 C46 122 46 122 49 122 C49 136.52 49 151.04 49 166 C26.63347551 173.21106527 3.97799077 179.99676765 -19.70703125 180.23828125 C-20.90593491 180.25297203 -20.90593491 180.25297203 -22.12905884 180.26795959 C-55.43220305 180.5926308 -55.43220305 180.5926308 -70 176 C-70.70511719 175.78569336 -71.41023438 175.57138672 -72.13671875 175.35058594 C-86.37716338 170.89558345 -98.40282912 163.56069181 -109 153 C-109.69738281 152.32582031 -110.39476563 151.65164063 -111.11328125 150.95703125 C-127.54052701 133.95562932 -132.4331384 108.8625158 -132.23242188 85.99755859 C-131.66626347 62.79072571 -125.71027125 41.62615799 -110 24 C-109.32324219 23.22914063 -108.64648438 22.45828125 -107.94921875 21.6640625 C-83.1274769 -4.92741963 -33.66626602 -12.02914696 0 0 Z M-63 44 C-68.43121873 50.93928349 -73 58.97732209 -73 68 C-49.24 68 -25.48 68 -1 68 C-3.46414317 51.62744577 -3.46414317 51.62744577 -13.88671875 39.58984375 C-28.5074973 30.03760176 -50.46695214 31.20198284 -63 44 Z " fill="#FF4D00" transform="translate(2665,189)"/>
<path d="M0 0 C0.81855469 0.350625 1.63710937 0.70125 2.48046875 1.0625 C16.16558592 7.84617254 24.72323565 20.04755904 30 34 C33.14982602 44.44278419 34.14849056 54.14411632 34.11352539 64.99389648 C34.11367142 66.18485428 34.11381744 67.37581207 34.1139679 68.6028595 C34.11339278 71.85029274 34.10839571 75.09768226 34.10139394 78.34510684 C34.09512028 81.74569936 34.09455343 85.14629284 34.09336853 88.54689026 C34.09026701 94.97820501 34.08206958 101.40950265 34.07201904 107.84080988 C34.05972164 115.88540642 34.05426602 123.93000577 34.04882812 131.97460938 C34.03910344 146.31641956 34.01906874 160.65819244 34 175 C15.19 175 -3.62 175 -23 175 C-23.04898437 167.42675781 -23.09796875 159.85351562 -23.1484375 152.05078125 C-23.18385096 147.23371114 -23.21982651 142.41665821 -23.2578125 137.59960938 C-23.31796304 129.96511379 -23.37610815 122.33064205 -23.421875 114.69604492 C-23.45893172 108.53624024 -23.50534549 102.37656874 -23.55806351 96.21687889 C-23.57649965 93.87476135 -23.59164671 91.53261538 -23.60334396 89.19045448 C-22.49049622 65.93318653 -22.49049622 65.93318653 -31.41796875 45.4765625 C-38.44557143 39.22578994 -46.18024916 39.30657632 -55.06738281 39.8046875 C-62.55154373 40.56104535 -69.08159606 44.41694688 -74 50 C-83.40904017 62.28843318 -85.1011331 77.47966223 -85.20532227 92.46704102 C-85.21522186 93.36568375 -85.22512146 94.26432648 -85.23532104 95.19020081 C-85.26663148 98.12807683 -85.29157157 101.06596897 -85.31640625 104.00390625 C-85.33700216 106.05370986 -85.35799928 108.10350947 -85.37937927 110.15330505 C-85.43432779 115.52406561 -85.48385607 120.89486275 -85.53222656 126.26568604 C-85.59151989 132.72280082 -85.65759674 139.17984939 -85.72252655 145.63690948 C-85.82019311 155.42456556 -85.90928347 165.21226594 -86 175 C-104.81 175 -123.62 175 -143 175 C-143 117.25 -143 59.5 -143 0 C-124.19 0 -105.38 0 -86 0 C-85.505 11.385 -85.505 11.385 -85 23 C-83.123125 21.02 -81.24625 19.04 -79.3125 17 C-59.37447299 -3.32086552 -26.82040034 -11.53239279 0 0 Z " fill="#FF4D00" transform="translate(1475,189)"/>
<path d="M0 0 C18.48 0 36.96 0 56 0 C56 16.5 56 33 56 50 C75.14 50 94.28 50 114 50 C114 63.2 114 76.4 114 90 C94.86 90 75.72 90 56 90 C56.12010843 103.26378028 56.12010843 103.26378028 56.2578125 116.52734375 C56.3179381 121.94316019 56.37607693 127.35894332 56.421875 132.77490234 C56.45896108 137.14518252 56.50538177 141.51527604 56.55806351 145.88539505 C56.57648434 147.54616623 56.59163685 149.20697722 56.60334396 150.8678093 C56.27171242 165.45382682 56.27171242 165.45382682 60.75 179 C68.9518643 186.29054604 84.92091297 184.24951213 95.1875 184.5625 C99.745625 184.706875 104.30375 184.85125 109 185 C109 198.2 109 211.4 109 225 C93.41995584 225.16043524 93.41995584 225.16043524 86.67578125 225.1953125 C82.10966939 225.21903964 77.5438843 225.24681756 72.97802734 225.30175781 C69.28860446 225.34586404 65.59953292 225.36927018 61.90986633 225.37950897 C60.51632672 225.38678629 59.12280192 225.40098877 57.72941589 225.42292023 C41.99756876 225.66023015 24.58178047 222.89066825 12.58984375 211.7734375 C2.82841418 200.88476668 -0.17512677 186.1753213 -0.11352539 171.96533203 C-0.11367142 171.07688095 -0.11381744 170.18842987 -0.1139679 169.27305603 C-0.11327406 166.35128291 -0.10550647 163.42957441 -0.09765625 160.5078125 C-0.09579019 158.47614578 -0.09436717 156.44447861 -0.09336853 154.41281128 C-0.08955815 149.07648467 -0.07974051 143.74018545 -0.06866455 138.40386963 C-0.05841861 132.95414602 -0.05386409 127.50441797 -0.04882812 122.0546875 C-0.03811689 111.36977772 -0.02053208 100.68489543 0 90 C-9.24 90 -18.48 90 -28 90 C-28 76.8 -28 63.6 -28 50 C-18.76 50 -9.52 50 0 50 C0 33.5 0 17 0 0 Z " fill="#FF4D00" transform="translate(2241,139)"/>
<path d="M0 0 C1.8253125 0.00773438 1.8253125 0.00773438 3.6875 0.015625 C12.56441327 0.09470663 12.56441327 0.09470663 14.875 1.25 C14.875 18.08 14.875 34.91 14.875 52.25 C10.7386048 51.42272096 7.10230349 50.35820545 3.15625 48.96875 C-7.85308694 45.5000548 -23.33156255 45.21963264 -33.90625 49.98828125 C-44.46822901 55.99447706 -51.11822802 63.73960375 -55.125 75.25 C-58.14006823 87.77470704 -58.59368021 100.11214871 -58.63671875 112.94140625 C-58.65361288 114.86768195 -58.67176924 116.79394696 -58.69111633 118.72019958 C-58.7381094 123.72916311 -58.76824373 128.73808325 -58.79455566 133.74719238 C-58.82992974 139.78990318 -58.88679431 145.83244736 -58.93994904 151.87502289 C-59.01786655 160.99999234 -59.06892198 170.12475278 -59.125 179.25 C-77.935 179.25 -96.745 179.25 -116.125 179.25 C-116.125 121.5 -116.125 63.75 -116.125 4.25 C-97.315 4.25 -78.505 4.25 -59.125 4.25 C-58.63 16.625 -58.63 16.625 -58.125 29.25 C-56.825625 27.6 -55.52625 25.95 -54.1875 24.25 C-39.6894154 6.69020809 -22.65915303 -0.39665913 0 0 Z " fill="#FF4D00" transform="translate(2504.125,184.75)"/>
<path d="" fill="#0D0300" transform="translate(0,0)"/>
<path d="" fill="#0C0400" transform="translate(0,0)"/>
</svg>
